<svg width="47" height="47" viewBox="0 0 47 47" fill="none" xmlns="http://www.w3.org/2000/svg">
<path d="M39.841 46.7699H6.92887C3.08786 46.7699 0 43.682 0 39.841V6.92888C0 3.08788 3.08786 0 6.92887 0H39.841C43.682 0 46.7699 3.08788 46.7699 6.92888V39.841C46.7699 43.682 43.6067 46.7699 39.841 46.7699Z" fill="white"/>
<path d="M23.0462 15.1381C23.0462 15.1381 27.6403 12.3514 30.4269 10.7699C33.2135 9.18827 34.7951 8.66107 36.3767 8.51044C37.9583 8.43513 39.7659 9.26358 39.7659 9.26358L34.7198 6.1004C34.7198 6.1004 34.042 5.64852 32.1592 5.87446C30.2763 6.1004 29.2972 6.6276 28.0922 7.23011C26.8872 7.90793 18.8286 12.6527 18.8286 12.6527L23.0462 15.1381Z" fill="#231815"/>
<path d="M35.0966 13.0292C35.0966 13.0292 37.4314 16.2677 35.6238 21.9916C33.8163 27.7154 29.5987 30.9539 29.2975 31.1798C29.0715 31.4058 26.4355 32.9121 26.4355 32.9121L26.5109 37.4309C26.5109 37.4309 34.946 34.4937 38.4858 26.3598C41.6489 19.2049 39.6155 15.364 38.0339 13.707C37.1301 12.728 35.0966 13.0292 35.0966 13.0292Z" fill="#231815"/>
<path d="M23.0462 37.3557L18.8286 34.8703V12.7281L23.0462 15.1381V37.3557Z" fill="#231815"/>
<path d="M10.1675 30.8786L5.94995 28.318V6.25102L10.0922 8.58575L10.1675 30.8786Z" fill="#231815"/>
<path d="M5.95007 28.318C5.95007 28.318 4.89568 37.6569 12.5024 41.046C16.8706 43.0042 20.1091 41.8745 21.6153 40.3682C22.8204 39.1632 22.971 37.3557 22.971 37.3557L18.7534 34.795C18.7534 34.795 18.7534 35.6988 18.0756 36.3766C17.3224 37.205 16.1174 38.0335 13.4061 36.6778C9.9417 34.8703 10.0923 30.8787 10.0923 30.8787L5.95007 28.318Z" fill="#231815"/>
<path d="M10.0924 8.58574L13.4816 6.85352L9.64057 4.74473L5.9502 6.251L10.0924 8.58574Z" fill="#231815"/>
</svg>
