<svg width="124" height="27" viewBox="0 0 124 27" fill="none" xmlns="http://www.w3.org/2000/svg">
<path d="M119.783 16.0752H121.44V16.4517H120.762V18.184H120.385V16.4517H119.708L119.783 16.0752Z" fill="white"/>
<path d="M121.741 16.0752H122.193L122.871 17.4309L123.548 16.0752H124V18.184H123.624V16.6777L122.946 17.958H122.72L122.042 16.6777V18.184H121.741V16.0752Z" fill="white"/>
<path d="M117.523 16.2258C117.523 16.9789 117.523 17.5814 117.523 18.3345C114.435 18.3345 111.348 18.3345 108.335 18.3345C106.076 18.3345 106.076 18.3346 106.076 20.5187C106.076 23.7571 106.076 23.7571 109.239 23.7571C110.896 23.7571 112.553 23.6818 114.134 23.7571C115.339 23.8325 115.716 23.3806 115.565 22.2509C115.49 21.573 115.565 20.8199 115.565 19.9914C116.318 19.9914 116.996 19.9914 117.9 19.9914C117.9 21.2718 117.975 22.4768 117.9 23.7571C117.825 25.0375 116.996 25.7906 115.791 25.8659C112.477 25.9412 109.239 25.9412 105.925 25.8659C104.419 25.8659 103.666 24.8868 103.666 23.3806C103.666 21.8743 103.666 20.2927 103.666 18.7864C103.666 17.1295 104.419 16.3011 106 16.2258C109.841 16.1504 113.607 16.2258 117.523 16.2258Z" fill="white"/>
<path d="M0.786891 0.259254H3.12162V7.48937C3.12162 7.64 3.27225 7.79064 3.42287 7.79064H12.5358C12.6865 7.79064 12.8371 7.64 12.8371 7.48937V0.259254H15.2472C15.2472 2.89524 15.3225 5.45591 15.2472 8.01658C15.2472 9.2216 14.4187 9.97473 13.289 9.97473C9.67392 10.05 6.43543 10.05 2.74505 9.97473C1.54003 9.97473 0.786891 9.14628 0.786891 7.86594C0.711577 5.38059 0.786891 2.81992 0.786891 0.259254Z" fill="white"/>
<path d="M53.3561 16.2257H55.6908V23.3052C55.6908 23.4559 55.8414 23.6065 55.9921 23.6065H66.536V25.7906C66.536 25.7906 56.1427 25.7906 56.0674 25.7906C53.9586 25.7906 53.2808 24.9622 53.2808 23.0793C53.3561 21.0458 53.3561 18.4852 53.3561 16.2257Z" fill="white"/>
<path d="M83.7073 16.3011C84.4604 16.3011 85.0629 16.3011 85.8914 16.3011C85.8914 19.4643 85.8914 22.6275 85.8914 25.866C85.2135 25.866 84.5357 25.866 83.7073 25.866C83.7073 22.6275 83.7073 19.5396 83.7073 16.3011Z" fill="white"/>
<path d="M48.3099 4.92871C48.3099 4.92871 48.6865 4.32621 48.6865 4.02495C49.1383 2.21742 48.4605 0.334574 46.653 0.25926C42.586 0.108632 38.5191 0.183942 34.3015 0.183942C34.3015 3.42244 34.3015 6.58562 34.3015 9.89943C38.1425 9.89943 41.9082 9.89943 45.6739 9.89943C48.6111 9.89943 49.063 7.71532 48.6111 5.68185C48.6111 5.45591 48.3099 4.92871 48.3099 4.92871ZM45.8245 7.71532L36.8622 7.79064V5.9831C36.8622 5.9831 44.1676 5.9831 45.8245 5.9831C45.9752 5.9831 46.1258 6.13374 46.1258 6.28436V7.41407C46.1258 7.5647 45.9752 7.71532 45.8245 7.71532ZM45.8245 4.17558L36.8622 4.25089V2.44336C36.8622 2.44336 44.1676 2.44336 45.8245 2.44336C45.9752 2.44336 46.1258 2.59399 46.1258 2.74462V3.87432C46.1258 4.02495 45.9752 4.17558 45.8245 4.17558Z" fill="white"/>
<path d="M61.4145 2.06678C60.6614 0.560505 59.5317 0.259254 58.0254 0.259254C56.4438 0.259254 55.3894 0.560505 54.6363 2.06678C54.6363 2.06678 51.7743 7.18812 50.1174 9.97473H53.0547L57.1216 2.59398C57.1969 2.51866 57.2723 2.44335 57.4229 2.44335H58.7785C58.8538 2.44335 59.0045 2.51866 59.0798 2.59398L63.1467 9.97473C63.1467 9.97473 65.3308 9.97473 66.084 9.97473C64.2764 7.18812 61.3392 2.06678 61.4145 2.06678Z" fill="white"/>
<path d="M81.4482 0.259187H78.9628C78.9628 2.66923 78.9628 5.07927 78.9628 7.79057C78.9628 7.79057 78.5863 7.86588 78.0591 7.414C76.7787 6.20898 73.9168 2.74454 73.5402 2.36798C73.5402 2.36798 73.5402 2.29266 73.4649 2.29266C73.239 1.9914 73.0131 1.76546 72.9377 1.69014C72.034 0.786379 71.5068 0.334496 69.8499 0.183868H67.6658C67.6658 3.12111 67.6658 6.96212 67.6658 9.89936H70.1511C70.1511 7.48932 70.1511 5.07927 70.1511 2.36798C70.1511 2.36798 70.5277 2.29266 71.0549 2.74454C72.3352 3.94957 75.1972 7.414 75.5737 7.79057C75.5737 7.79057 75.5737 7.86587 75.649 7.86587C75.875 8.16713 76.1009 8.39307 76.1762 8.46839C77.08 9.37215 77.6072 9.82404 79.2641 9.97466H81.4482C81.4482 7.03743 81.4482 3.19643 81.4482 0.259187Z" fill="white"/>
<path d="M15.1719 18.1087C15.1719 16.979 14.3435 16.3011 13.0631 16.3011C11.7075 16.3011 10.2765 16.3011 8.92086 16.3011C6.13425 16.3011 3.34765 16.3011 0.561035 16.3011C0.561035 19.5396 0.561035 22.6275 0.561035 25.866C3.27233 25.866 5.833 25.866 8.39367 25.866C9.97526 25.866 11.5568 25.866 13.0631 25.866C14.2681 25.866 15.0966 25.1128 15.1719 24.0584C15.1719 23.6066 15.1719 18.5605 15.1719 18.1087ZM12.8372 19.389V22.7781V23.4559C12.8372 23.6066 12.6866 23.7572 12.5359 23.7572H3.19702C3.04639 23.7572 2.89576 23.6066 2.89576 23.4559V18.7865C2.89576 18.6359 3.04639 18.4852 3.19702 18.4852H12.6866C12.8372 18.4852 12.8372 18.6359 12.8372 18.7865V19.389Z" fill="white"/>
<path d="M101.707 16.2259H99.2221C99.2221 18.6359 99.2221 21.0459 99.2221 23.7572C99.2221 23.7572 98.8455 23.8326 98.3183 23.3807C97.038 22.1757 94.1761 18.7112 93.7995 18.3346C93.7995 18.3346 93.7995 18.3347 93.7242 18.2593C93.4983 17.9581 93.2723 17.7321 93.197 17.6568C92.2932 16.7531 91.766 16.3012 90.1091 16.1505H87.925C87.925 19.0878 87.925 22.9288 87.925 25.866H90.4104C90.4104 23.456 90.4104 21.0459 90.4104 18.3346C90.4104 18.3346 90.787 18.2593 91.3142 18.7112C92.5945 19.9162 95.4564 23.3807 95.833 23.7572C95.833 23.7572 95.833 23.7572 95.9083 23.8326C96.1343 24.1338 96.3602 24.3597 96.4355 24.4351C97.3393 25.3388 97.8665 25.7907 99.5234 25.9413H101.707C101.707 23.0041 101.707 19.1631 101.707 16.2259Z" fill="white"/>
<path d="M33.6239 16.2257C33.2474 18.2592 32.6449 20.8952 32.193 22.9287C32.1177 23.3806 31.967 23.6818 31.5905 23.6818C31.1386 23.6818 31.1386 23.3806 30.9126 22.9287C30.9126 22.9287 29.4064 18.937 28.6532 17.2048C28.352 16.527 27.9001 16.2257 27.2223 16.2257C26.921 16.2257 26.6198 16.2257 26.3938 16.2257H26.3185H26.2432C26.0172 16.2257 25.716 16.2257 25.4147 16.2257C24.7369 16.2257 24.285 16.527 23.9838 17.2048C23.2306 18.937 21.7244 22.9287 21.7244 22.9287C21.5737 23.3806 21.4984 23.6818 21.0465 23.6818C20.67 23.6818 20.5193 23.3806 20.444 22.9287C19.9921 20.8199 19.465 18.2592 19.0131 16.2257C18.1093 16.2257 17.3562 16.2257 16.4524 16.2257C17.0549 18.8617 17.6574 21.3471 18.1846 23.7571C18.4106 24.8115 18.7118 25.8659 20.0675 25.7906C20.67 25.7906 21.4984 25.7906 22.1009 25.7906C22.8541 25.7906 23.2306 25.2634 23.6072 24.209L25.7913 18.4098C26.0173 17.8073 26.0926 17.732 26.2432 17.732C26.3938 17.732 26.5444 17.8073 26.6951 18.4098L28.8792 24.209C29.2557 25.2634 29.6323 25.7906 30.3854 25.7906C30.988 25.7906 31.7411 25.7906 32.4189 25.7906C33.7746 25.7906 34.0758 24.8115 34.3018 23.7571C34.829 21.3471 35.4315 18.7864 36.034 16.2257C35.2808 16.2257 34.5277 16.2257 33.6239 16.2257Z" fill="white"/>
<path d="M50.4942 20.2173H39.7243C39.4984 20.2173 39.3478 20.0667 39.3478 19.9161V18.7864C39.3478 18.6357 39.4984 18.4851 39.7243 18.4851C41.5319 18.4851 48.536 18.4851 50.4942 18.4851H51.0214C51.0214 17.732 51.0214 17.0542 51.0214 16.301C46.8791 16.301 42.8122 16.2257 38.6699 16.3763C36.9377 16.4517 36.4858 18.0332 36.4858 19.9914C36.4858 20.2926 36.4858 21.573 36.4858 21.8742C36.4858 23.9077 36.6365 26.0165 39.5737 26.0165C43.3394 26.0165 47.1051 26.0165 50.9461 26.0165C50.9461 25.2634 50.9461 24.5102 50.9461 23.8324H39.649C39.4231 23.8324 39.2724 23.6818 39.2724 23.5312V22.2508C39.2724 22.1002 39.4231 21.9496 39.649 21.9496C41.6825 21.9496 50.9461 21.9496 50.9461 21.9496C50.9461 21.347 50.9461 20.7445 50.9461 20.2173H50.4942Z" fill="white"/>
<path d="M68.2679 16.2257H70.6027V23.3052C70.6027 23.4559 70.7533 23.6065 70.9039 23.6065H81.4479V25.7906C81.4479 25.7906 71.0546 25.7906 70.9792 25.7906C68.8705 25.7906 68.1926 24.9622 68.1926 23.0793C68.2679 21.0458 68.2679 18.4852 68.2679 16.2257Z" fill="white"/>
<path d="M28.0504 6.20912H29.1801C31.2136 6.13381 31.4395 5.07942 31.4395 3.27189C31.4395 1.61498 30.9876 0.409954 29.1048 0.334641H19.2387H16.9792V10.0501H19.2387V6.28444H24.7366L28.8035 10.0501H31.9667C31.9667 9.97482 28.0504 6.20912 28.0504 6.20912ZM19.314 4.17565V2.36812C19.9165 2.36812 26.77 2.36812 28.3516 2.36812C28.5023 2.36812 28.6529 2.51875 28.6529 2.66937V3.79908C28.6529 3.94971 28.5023 4.10033 28.3516 4.10033L19.314 4.17565Z" fill="white"/>
</svg>
