<svg width="180" height="47" viewBox="0 0 180 47" fill="none" xmlns="http://www.w3.org/2000/svg">
<path d="M39.841 46.7699H6.92887C3.08786 46.7699 0 43.682 0 39.841V6.92888C0 3.08788 3.08786 0 6.92887 0H39.841C43.682 0 46.7699 3.08788 46.7699 6.92888V39.841C46.7699 43.682 43.6067 46.7699 39.841 46.7699Z" fill="white"/>
<path d="M23.0466 15.138C23.0466 15.138 27.6407 12.3514 30.4273 10.7698C33.2139 9.18823 34.7955 8.66103 36.3771 8.5104C37.9587 8.43509 39.7662 9.26354 39.7662 9.26354L34.7202 6.10036C34.7202 6.10036 34.0424 5.64848 32.1595 5.87442C30.2767 6.10036 29.2976 6.62756 28.0926 7.23007C26.8876 7.9079 18.829 12.6527 18.829 12.6527L23.0466 15.138Z" fill="#231815"/>
<path d="M35.0968 13.0292C35.0968 13.0292 37.4315 16.2677 35.624 21.9915C33.8164 27.7154 29.5988 30.9539 29.2976 31.1798C29.0716 31.4058 26.4357 32.912 26.4357 32.912L26.511 37.4309C26.511 37.4309 34.9461 34.4936 38.4859 26.3597C41.6491 19.2049 39.6156 15.3639 38.034 13.707C37.1302 12.7279 35.0968 13.0292 35.0968 13.0292Z" fill="#231815"/>
<path d="M23.0466 37.3556L18.829 34.8703V12.728L23.0466 15.1381V37.3556Z" fill="#231815"/>
<path d="M10.1678 30.8786L5.9502 28.3179V6.25098L10.0924 8.58571L10.1678 30.8786Z" fill="#231815"/>
<path d="M5.95019 28.318C5.95019 28.318 4.8958 37.6569 12.5025 41.046C16.8707 43.0042 20.1092 41.8745 21.6155 40.3682C22.8205 39.1632 22.9711 37.3556 22.9711 37.3556L18.7535 34.795C18.7535 34.795 18.7535 35.6988 18.0757 36.3766C17.3226 37.205 16.1176 38.0335 13.4063 36.6778C9.94182 34.8703 10.0924 30.8787 10.0924 30.8787L5.95019 28.318Z" fill="#231815"/>
<path d="M10.0927 8.58564L13.4818 6.85342L9.64082 4.74463L5.95044 6.25091L10.0927 8.58564Z" fill="#231815"/>
<path d="M175.783 36.0753H177.44V36.4519H176.762V38.1841H176.385V36.4519H175.707L175.783 36.0753Z" fill="white"/>
<path d="M177.741 36.0753H178.193L178.87 37.431L179.548 36.0753H180V38.1841H179.624V36.6778L178.946 37.9582H178.72L178.042 36.6778V38.1841H177.741V36.0753Z" fill="white"/>
<path d="M173.523 36.2257C173.523 36.9789 173.523 37.5814 173.523 38.3345C170.435 38.3345 167.348 38.3345 164.335 38.3345C162.076 38.3345 162.076 38.3345 162.076 40.5186C162.076 43.7571 162.076 43.7571 165.239 43.7571C166.896 43.7571 168.553 43.6818 170.134 43.7571C171.339 43.8324 171.716 43.3805 171.565 42.2508C171.49 41.573 171.565 40.8199 171.565 39.9914C172.318 39.9914 172.996 39.9914 173.9 39.9914C173.9 41.2718 173.975 42.4768 173.9 43.7571C173.825 45.0374 172.996 45.7906 171.791 45.8659C168.477 45.9412 165.239 45.9412 161.925 45.8659C160.419 45.8659 159.666 44.8868 159.666 43.3805C159.666 41.8743 159.666 40.2927 159.666 38.7864C159.666 37.1295 160.419 36.301 162 36.2257C165.841 36.1504 169.607 36.2257 173.523 36.2257Z" fill="white"/>
<path d="M56.7868 20.2593H59.1215V27.4894C59.1215 27.64 59.2721 27.7907 59.4228 27.7907H68.5357C68.6864 27.7907 68.837 27.64 68.837 27.4894V20.2593H71.247C71.247 22.8953 71.3223 25.4559 71.247 28.0166C71.247 29.2216 70.4186 29.9748 69.2889 29.9748C65.6738 30.0501 62.4353 30.0501 58.7449 29.9748C57.5399 29.9748 56.7868 29.1463 56.7868 27.866C56.7115 25.3806 56.7868 22.8199 56.7868 20.2593Z" fill="white"/>
<path d="M109.356 36.2257H111.691V43.3052C111.691 43.4558 111.841 43.6065 111.992 43.6065H122.536V45.7906C122.536 45.7906 112.143 45.7906 112.067 45.7906C109.958 45.7906 109.281 44.9621 109.281 43.0793C109.356 41.0458 109.356 38.4851 109.356 36.2257Z" fill="white"/>
<path d="M139.707 36.3011C140.461 36.3011 141.063 36.3011 141.891 36.3011C141.891 39.4643 141.891 42.6275 141.891 45.866C141.214 45.866 140.536 45.866 139.707 45.866C139.707 42.6275 139.707 39.5396 139.707 36.3011Z" fill="white"/>
<path d="M104.309 24.9286C104.309 24.9286 104.686 24.3261 104.686 24.0249C105.138 22.2173 104.46 20.3345 102.652 20.2592C98.5855 20.1086 94.5186 20.1839 90.301 20.1839C90.301 23.4224 90.301 26.5855 90.301 29.8994C94.142 29.8994 97.9077 29.8994 101.673 29.8994C104.611 29.8994 105.063 27.7152 104.611 25.6818C104.611 25.4558 104.309 24.9286 104.309 24.9286ZM101.824 27.7152L92.8617 27.7906V25.983C92.8617 25.983 100.167 25.983 101.824 25.983C101.975 25.983 102.125 26.1337 102.125 26.2843V27.414C102.125 27.5646 101.975 27.7152 101.824 27.7152ZM101.824 24.1755L92.8617 24.2508V22.4433C92.8617 22.4433 100.167 22.4433 101.824 22.4433C101.975 22.4433 102.125 22.5939 102.125 22.7445V23.8742C102.125 24.0249 101.975 24.1755 101.824 24.1755Z" fill="white"/>
<path d="M117.414 22.0668C116.661 20.5605 115.532 20.2593 114.025 20.2593C112.444 20.2593 111.389 20.5605 110.636 22.0668C110.636 22.0668 107.774 27.1881 106.117 29.9748H109.055L113.122 22.594C113.197 22.5187 113.272 22.4434 113.423 22.4434H114.778C114.854 22.4434 115.004 22.5187 115.08 22.594L119.147 29.9748C119.147 29.9748 121.331 29.9748 122.084 29.9748C120.276 27.1881 117.339 22.0668 117.414 22.0668Z" fill="white"/>
<path d="M137.448 20.2592H134.962C134.962 22.6692 134.962 25.0792 134.962 27.7905C134.962 27.7905 134.586 27.8659 134.059 27.414C132.778 26.2089 129.916 22.7445 129.54 22.3679C129.54 22.3679 129.54 22.2926 129.464 22.2926C129.238 21.9914 129.013 21.7654 128.937 21.6901C128.033 20.7863 127.506 20.3345 125.849 20.1838H123.665C123.665 23.1211 123.665 26.9621 123.665 29.8993H126.151C126.151 27.4893 126.151 25.0792 126.151 22.3679C126.151 22.3679 126.527 22.2926 127.054 22.7445C128.335 23.9495 131.197 27.414 131.573 27.7905C131.573 27.7905 131.573 27.8658 131.649 27.8658C131.874 28.1671 132.1 28.393 132.176 28.4684C133.08 29.3721 133.607 29.824 135.264 29.9746H137.448C137.448 27.0374 137.448 23.1964 137.448 20.2592Z" fill="white"/>
<path d="M71.1719 38.1087C71.1719 36.979 70.3435 36.3011 69.0631 36.3011C67.7075 36.3011 66.2765 36.3011 64.9209 36.3011C62.1342 36.3011 59.3476 36.3011 56.561 36.3011C56.561 39.5396 56.561 42.6275 56.561 45.866C59.2723 45.866 61.833 45.866 64.3937 45.866C65.9753 45.866 67.5568 45.866 69.0631 45.866C70.2681 45.866 71.0966 45.1129 71.1719 44.0585C71.1719 43.6066 71.1719 38.5606 71.1719 38.1087ZM68.8372 39.389V42.7781V43.456C68.8372 43.6066 68.6866 43.7572 68.5359 43.7572H59.197C59.0464 43.7572 58.8958 43.6066 58.8958 43.456V38.7865C58.8958 38.6359 59.0464 38.4852 59.197 38.4852H68.6866C68.8372 38.4852 68.8372 38.6359 68.8372 38.7865V39.389Z" fill="white"/>
<path d="M157.707 36.2258H155.222C155.222 38.6359 155.222 41.0459 155.222 43.7572C155.222 43.7572 154.846 43.8325 154.318 43.3806C153.038 42.1756 150.176 38.7112 149.8 38.3346C149.8 38.3346 149.8 38.3346 149.724 38.2593C149.498 37.9581 149.272 37.7321 149.197 37.6568C148.293 36.753 147.766 36.3011 146.109 36.1505H143.925C143.925 39.0878 143.925 42.9288 143.925 45.866H146.41C146.41 43.4559 146.41 41.0459 146.41 38.3346C146.41 38.3346 146.787 38.2593 147.314 38.7112C148.595 39.9162 151.456 43.3806 151.833 43.7572C151.833 43.7572 151.833 43.7572 151.908 43.8325C152.134 44.1338 152.36 44.3597 152.436 44.435C153.339 45.3388 153.866 45.7907 155.523 45.9413H157.707C157.707 43.0041 157.707 39.1631 157.707 36.2258Z" fill="white"/>
<path d="M89.6238 36.2257C89.2473 38.2592 88.6447 40.8952 88.1929 42.9286C88.1176 43.3805 87.9669 43.6818 87.5904 43.6818C87.1385 43.6818 87.1385 43.3805 86.9125 42.9286C86.9125 42.9286 85.4062 38.937 84.6531 37.2048C84.3519 36.527 83.9 36.2257 83.2221 36.2257C82.9209 36.2257 82.6196 36.2257 82.3937 36.2257H82.3184H82.2431C82.0171 36.2257 81.7159 36.2257 81.4146 36.2257C80.7368 36.2257 80.2849 36.527 79.9837 37.2048C79.2305 38.937 77.7242 42.9286 77.7242 42.9286C77.5736 43.3805 77.4983 43.6818 77.0464 43.6818C76.6698 43.6818 76.5192 43.3805 76.4439 42.9286C75.992 40.8198 75.4648 38.2592 75.0129 36.2257C74.1092 36.2257 73.356 36.2257 72.4523 36.2257C73.0548 38.8617 73.6573 41.347 74.1845 43.7571C74.4104 44.8115 74.7117 45.8659 76.0673 45.7906C76.6698 45.7906 77.4983 45.7906 78.1008 45.7906C78.8539 45.7906 79.2305 45.2634 79.6071 44.209L81.7912 38.4098C82.0171 37.8073 82.0924 37.732 82.2431 37.732C82.3937 37.732 82.5443 37.8073 82.695 38.4098L84.879 44.209C85.2556 45.2634 85.6322 45.7906 86.3853 45.7906C86.9878 45.7906 87.741 45.7906 88.4188 45.7906C89.7744 45.7906 90.0757 44.8115 90.3016 43.7571C90.8288 41.347 91.4314 38.7864 92.0339 36.2257C91.2807 36.2257 90.5276 36.2257 89.6238 36.2257Z" fill="white"/>
<path d="M106.494 40.2172H95.7243C95.4984 40.2172 95.3478 40.0666 95.3478 39.916V38.7863C95.3478 38.6356 95.4984 38.485 95.7243 38.485C97.5319 38.485 104.536 38.485 106.494 38.485H107.021C107.021 37.7319 107.021 37.0541 107.021 36.3009C102.879 36.3009 98.8122 36.2256 94.6699 36.3762C92.9377 36.4516 92.4858 38.0331 92.4858 39.9913C92.4858 40.2926 92.4858 41.5729 92.4858 41.8741C92.4858 43.9076 92.6365 46.0164 95.5737 46.0164C99.3394 46.0164 103.105 46.0164 106.946 46.0164C106.946 45.2633 106.946 44.5101 106.946 43.8323H95.649C95.4231 43.8323 95.2724 43.6817 95.2724 43.5311V42.2507C95.2724 42.1001 95.4231 41.9495 95.649 41.9495C97.6825 41.9495 106.946 41.9495 106.946 41.9495C106.946 41.347 106.946 40.7444 106.946 40.2172H106.494Z" fill="white"/>
<path d="M124.268 36.2257H126.603V43.3052C126.603 43.4558 126.753 43.6065 126.904 43.6065H137.448V45.7906C137.448 45.7906 127.055 45.7906 126.979 45.7906C124.87 45.7906 124.193 44.9621 124.193 43.0793C124.268 41.0458 124.268 38.4851 124.268 36.2257Z" fill="white"/>
<path d="M84.0509 26.2091H85.1806C87.2141 26.1338 87.44 25.0794 87.44 23.2718C87.44 21.6149 86.9881 20.4099 85.1053 20.3346H75.2392H72.9797V30.0501H75.2392V26.2844H80.7371L84.804 30.0501H87.9672C87.9672 29.9748 84.0509 26.2091 84.0509 26.2091ZM75.3145 24.1756V22.3681C75.917 22.3681 82.7705 22.3681 84.3521 22.3681C84.5028 22.3681 84.6534 22.5187 84.6534 22.6693V23.799C84.6534 23.9497 84.5028 24.1003 84.3521 24.1003L75.3145 24.1756Z" fill="white"/>
</svg>
